<?xml version="1.0" standalone="no"?>
<!DOCTYPE svg PUBLIC "-//W3C//DTD SVG 20010904//EN"
 "http://www.w3.org/TR/2001/REC-SVG-20010904/DTD/svg10.dtd">
<svg version="1.0" xmlns="http://www.w3.org/2000/svg"
 width="512.000000pt" height="512.000000pt" viewBox="0 0 512.000000 512.000000"
 preserveAspectRatio="xMidYMid meet">

<g transform="translate(0.000000,512.000000) scale(0.100000,-0.100000)"
fill="#000000" stroke="none">
<path d="M2005 4681 c-55 -25 -120 -100 -134 -156 -6 -25 -11 -133 -11 -254
l0 -211 89 0 89 0 4 183 c3 202 8 219 71 257 30 19 53 20 447 20 394 0 417 -1
447 -20 63 -38 68 -55 71 -252 l4 -178 89 0 89 0 0 211 c0 241 -5 270 -64 336
-75 86 -51 83 -636 83 -478 0 -518 -2 -555 -19z"/>
<path d="M322 3914 c-81 -40 -132 -121 -132 -206 0 -24 22 -235 49 -469 52
-455 56 -473 118 -530 15 -15 42 -34 58 -42 17 -8 404 -101 860 -207 457 -105
837 -193 846 -196 11 -3 25 9 42 35 16 24 45 48 78 65 l53 26 265 0 c259 0
267 -1 317 -24 46 -21 69 -43 99 -90 9 -14 16 -14 70 -1 33 8 425 96 870 196
848 189 870 195 913 257 53 75 53 73 79 521 25 443 25 509 -1 559 -22 43 -74
92 -121 113 -38 18 -131 19 -2226 19 l-2185 0 -52 -26z"/>
<path d="M340 1599 c0 -716 3 -982 12 -1011 15 -51 82 -126 133 -149 38 -18
123 -19 2075 -19 1952 0 2037 1 2075 19 51 23 118 98 133 149 9 29 12 292 12
996 0 526 -2 956 -4 956 -5 0 -215 -49 -238 -56 -17 -5 -18 -53 -18 -820 0
-891 2 -854 -58 -917 -15 -16 -44 -37 -64 -48 -36 -18 -86 -19 -1838 -19
-1980 0 -1825 -5 -1893 59 -66 60 -61 3 -67 920 l-5 835 -97 23 c-54 12 -111
29 -128 38 l-30 16 0 -972z"/>
<path d="M720 1661 l0 -799 26 -31 26 -31 864 0 864 0 0 408 0 408 -35 13
c-72 26 -205 92 -235 118 -51 42 -67 87 -86 242 -15 126 -20 144 -38 152 -22
10 -1356 319 -1375 319 -8 0 -11 -219 -11 -799z"/>
<path d="M3686 2296 c-455 -102 -681 -157 -686 -167 -4 -8 -15 -74 -24 -147
-18 -146 -35 -193 -87 -237 -31 -26 -158 -89 -234 -116 l-35 -13 0 -408 0
-408 864 0 864 0 26 31 26 31 0 794 c0 750 -1 794 -17 793 -10 0 -323 -69
-697 -153z m172 -1258 l3 -58 -346 0 -345 0 0 60 0 60 343 -2 342 -3 3 -57z
m380 0 l3 -58 -121 0 -120 0 0 60 0 61 118 -3 117 -3 3 -57z"/>
<path d="M2293 2260 c-12 -5 -29 -21 -39 -35 -16 -24 -16 -35 5 -188 15 -114
26 -169 39 -186 10 -13 65 -46 122 -73 89 -41 112 -48 150 -45 59 6 234 88
255 120 10 16 24 86 37 186 20 151 20 162 4 186 -9 14 -28 30 -42 35 -32 12
-501 12 -531 0z m425 -233 l3 -58 -158 3 -158 3 -3 44 c-5 74 -11 72 160 69
l153 -3 3 -58z"/>
</g>
</svg>
